<svg width="76" height="76" viewBox="0 0 76 76" fill="none" xmlns="http://www.w3.org/2000/svg">
<g clip-path="url(#clip0_1_242)">
<path opacity="0.06" d="M55.0286 0.265625H21.2527C9.70499 0.265625 0.34375 9.62687 0.34375 21.1745V54.9505C0.34375 66.4981 9.70499 75.8594 21.2527 75.8594H55.0286C66.5763 75.8594 75.9375 66.4981 75.9375 54.9505V21.1745C75.9375 9.62687 66.5763 0.265625 55.0286 0.265625Z" fill="#FF6F35"/>
<path d="M38.1408 63.803C52.3568 63.803 63.8812 52.2786 63.8812 38.0626C63.8812 23.8465 52.3568 12.3222 38.1408 12.3222C23.9247 12.3222 12.4004 23.8465 12.4004 38.0626C12.4004 52.2786 23.9247 63.803 38.1408 63.803Z" fill="#FFCD1D"/>
<path d="M38.1406 21.8447V54.2803" stroke="white" stroke-width="2.41257" stroke-linecap="round" stroke-linejoin="round"/>
<path d="M45.5123 27.7421H34.4547C33.0861 27.7421 31.7736 28.2857 30.8058 29.2535C29.8381 30.2212 29.2944 31.5337 29.2944 32.9023C29.2944 34.2708 29.8381 35.5833 30.8058 36.5511C31.7736 37.5188 33.0861 38.0625 34.4547 38.0625H41.8263C43.1949 38.0625 44.5074 38.6061 45.4752 39.5739C46.443 40.5416 46.9866 41.8541 46.9866 43.2227C46.9866 44.5913 46.443 45.9038 45.4752 46.8715C44.5074 47.8393 43.1949 48.3829 41.8263 48.3829H29.2944" stroke="white" stroke-width="2.41257" stroke-linecap="round" stroke-linejoin="round"/>
</g>
<defs>
<clipPath id="clip0_1_242">
<rect width="75.5938" height="75.5938" fill="white" transform="translate(0.34375 0.265625)"/>
</clipPath>
</defs>
</svg>
