<svg width="315" height="18" viewBox="0 0 315 18" fill="none" xmlns="http://www.w3.org/2000/svg">
<g clip-path="url(#clip0_1_464)">
<path fill-rule="evenodd" clip-rule="evenodd" d="M9.81247 13.9768L4.04482 17.7561L5.8569 11.1029L0.480225 6.7854L7.36779 6.45282L9.81247 0.00512695L12.2571 6.45282L19.1447 6.7854L13.768 11.1029L15.5801 17.7561L9.81247 13.9768Z" fill="#FFC54F"/>
</g>
<g clip-path="url(#clip1_1_464)">
<path fill-rule="evenodd" clip-rule="evenodd" d="M34.4643 13.9768L28.6967 17.7561L30.5088 11.1029L25.1321 6.7854L32.0196 6.45282L34.4643 0.00512695L36.909 6.45282L43.7966 6.7854L38.4199 11.1029L40.232 17.7561L34.4643 13.9768Z" fill="#FFC54F"/>
</g>
<g clip-path="url(#clip2_1_464)">
<path fill-rule="evenodd" clip-rule="evenodd" d="M59.1162 13.9768L53.3485 17.7561L55.1606 11.1029L49.7839 6.7854L56.6715 6.45282L59.1162 0.00512695L61.5609 6.45282L68.4484 6.7854L63.0718 11.1029L64.8838 17.7561L59.1162 13.9768Z" fill="#FFC54F"/>
</g>
<g clip-path="url(#clip3_1_464)">
<path fill-rule="evenodd" clip-rule="evenodd" d="M83.7683 13.9768L78.0006 17.7561L79.8127 11.1029L74.436 6.7854L81.3236 6.45282L83.7683 0.00512695L86.213 6.45282L93.1005 6.7854L87.7238 11.1029L89.5359 17.7561L83.7683 13.9768Z" fill="#FFC54F"/>
</g>
<g clip-path="url(#clip4_1_464)">
<path fill-rule="evenodd" clip-rule="evenodd" d="M108.42 13.9768L102.652 17.7561L104.465 11.1029L99.0879 6.7854L105.975 6.45282L108.42 0.00512695L110.865 6.45282L117.752 6.7854L112.376 11.1029L114.188 17.7561L108.42 13.9768Z" fill="#FFC54F"/>
</g>
<defs>
<clipPath id="clip0_1_464">
<rect width="19.625" height="17.9896" fill="white" transform="translate(0 0.00512695)"/>
</clipPath>
<clipPath id="clip1_1_464">
<rect width="19.625" height="17.9896" fill="white" transform="translate(24.6519 0.00512695)"/>
</clipPath>
<clipPath id="clip2_1_464">
<rect width="19.625" height="17.9896" fill="white" transform="translate(49.3037 0.00512695)"/>
</clipPath>
<clipPath id="clip3_1_464">
<rect width="19.625" height="17.9896" fill="white" transform="translate(73.9558 0.00512695)"/>
</clipPath>
<clipPath id="clip4_1_464">
<rect width="19.625" height="17.9896" fill="white" transform="translate(98.6077 0.00512695)"/>
</clipPath>
</defs>
</svg>
